# xmcd
#
# Track frame offsets:
#	150
#	18912
#	34881
#	56082
#	79494
#	98792
#	119055
#	137532
#	154369
#	172542
#	181261
#	197067
#	223887
#
# Disc length: 3326 seconds
#
# Revision: 0
# Processed by: cddbd v1.5.2PL0 Copyright (c) Steve Scherf et al.
# Submitted via: EasyCDDAExtractor 12.0.1.1
#
DISCID=b50cfc0d
DTITLE=dragosh - where you dream
DYEAR=2004
DGENRE=
TTITLE0=confess
TTITLE1=when goddesses appear
TTITLE2=strange potion
TTITLE3=surrender
TTITLE4=i'm ready ready now
TTITLE5=where you dream
TTITLE6=if you were a sailor
TTITLE7=thorn of a rose
TTITLE8=clover grass
TTITLE9=such a fool
TTITLE10=cloudy day
TTITLE11=could you
TTITLE12=Titre de la piste 13
EXTD=
EXTT0=
EXTT1=
EXTT2=
EXTT3=
EXTT4=
EXTT5=
EXTT6=
EXTT7=
EXTT8=
EXTT9=
EXTT10=
EXTT11=
EXTT12=
PLAYORDER=
